<mxfile host="app.diagrams.net" agent="Mozilla/5.0 (Windows NT 10.0; Win64; x64) AppleWebKit/537.36 (KHTML, like Gecko) Chrome/130.0.0.0 Safari/537.36" version="24.7.16" pages="2">
  <diagram name="Without Outbox" id="o2s-Cfqm51q4etfzRmT3">
    <mxGraphModel dx="563" dy="879" grid="1" gridSize="10" guides="1" tooltips="1" connect="1" arrows="1" fold="1" page="1" pageScale="1" pageWidth="1100" pageHeight="850" math="0" shadow="0">
      <root>
        <mxCell id="rCeCGkJg5bOsxaNGgPTR-0" />
        <mxCell id="rCeCGkJg5bOsxaNGgPTR-1" parent="rCeCGkJg5bOsxaNGgPTR-0" />
        <mxCell id="rCeCGkJg5bOsxaNGgPTR-2" value="Order Service" style="shape=umlLifeline;perimeter=lifelinePerimeter;whiteSpace=wrap;html=1;container=0;dropTarget=0;collapsible=0;recursiveResize=0;outlineConnect=0;portConstraint=eastwest;newEdgeStyle={&quot;edgeStyle&quot;:&quot;elbowEdgeStyle&quot;,&quot;elbow&quot;:&quot;vertical&quot;,&quot;curved&quot;:0,&quot;rounded&quot;:0};fontFamily=Space Mono;fontSize=12;" vertex="1" parent="rCeCGkJg5bOsxaNGgPTR-1">
          <mxGeometry x="350" y="160" width="100" height="200" as="geometry" />
        </mxCell>
        <mxCell id="rCeCGkJg5bOsxaNGgPTR-3" value="Database" style="shape=cylinder3;whiteSpace=wrap;html=1;boundedLbl=1;backgroundOutline=1;size=15;fontFamily=Space Mono;fontSize=12;" vertex="1" parent="rCeCGkJg5bOsxaNGgPTR-1">
          <mxGeometry x="555" y="120" width="60" height="80" as="geometry" />
        </mxCell>
        <mxCell id="rCeCGkJg5bOsxaNGgPTR-4" value="" style="endArrow=none;dashed=1;html=1;rounded=0;fontFamily=Space Mono;fontSize=12;" edge="1" parent="rCeCGkJg5bOsxaNGgPTR-1">
          <mxGeometry width="50" height="50" relative="1" as="geometry">
            <mxPoint x="585" y="360" as="sourcePoint" />
            <mxPoint x="585" y="200" as="targetPoint" />
          </mxGeometry>
        </mxCell>
        <mxCell id="rCeCGkJg5bOsxaNGgPTR-6" value="Client App" style="shape=umlLifeline;perimeter=lifelinePerimeter;whiteSpace=wrap;html=1;container=0;dropTarget=0;collapsible=0;recursiveResize=0;outlineConnect=0;portConstraint=eastwest;newEdgeStyle={&quot;edgeStyle&quot;:&quot;elbowEdgeStyle&quot;,&quot;elbow&quot;:&quot;vertical&quot;,&quot;curved&quot;:0,&quot;rounded&quot;:0};fontFamily=Space Mono;fontSize=12;" vertex="1" parent="rCeCGkJg5bOsxaNGgPTR-1">
          <mxGeometry x="230" y="160" width="100" height="200" as="geometry" />
        </mxCell>
        <mxCell id="rCeCGkJg5bOsxaNGgPTR-7" value="" style="endArrow=classic;html=1;rounded=0;fontFamily=Space Mono;fontSize=12;labelBackgroundColor=none;" edge="1" parent="rCeCGkJg5bOsxaNGgPTR-1" target="rCeCGkJg5bOsxaNGgPTR-2">
          <mxGeometry width="50" height="50" relative="1" as="geometry">
            <mxPoint x="280" y="240" as="sourcePoint" />
            <mxPoint x="395" y="240" as="targetPoint" />
          </mxGeometry>
        </mxCell>
        <mxCell id="rCeCGkJg5bOsxaNGgPTR-8" value="Create Order" style="edgeLabel;html=1;align=center;verticalAlign=middle;resizable=0;points=[];fontFamily=Space Mono;fontSize=12;labelBackgroundColor=none;" vertex="1" connectable="0" parent="rCeCGkJg5bOsxaNGgPTR-7">
          <mxGeometry x="-0.119" y="-1" relative="1" as="geometry">
            <mxPoint x="7" y="-11" as="offset" />
          </mxGeometry>
        </mxCell>
        <mxCell id="rCeCGkJg5bOsxaNGgPTR-11" value="" style="endArrow=classic;html=1;rounded=0;fillColor=#f8cecc;strokeColor=#b85450;fontFamily=Space Mono;fontSize=12;labelBackgroundColor=none;" edge="1" parent="rCeCGkJg5bOsxaNGgPTR-1">
          <mxGeometry width="50" height="50" relative="1" as="geometry">
            <mxPoint x="400" y="300" as="sourcePoint" />
            <mxPoint x="699.5" y="300" as="targetPoint" />
          </mxGeometry>
        </mxCell>
        <mxCell id="rCeCGkJg5bOsxaNGgPTR-12" value="&lt;font color=&quot;#b85450&quot;&gt;Publish OrderCreatedEvent&lt;/font&gt;" style="edgeLabel;html=1;align=center;verticalAlign=middle;resizable=0;points=[];fontColor=default;fontFamily=Space Mono;fontSize=12;labelBackgroundColor=none;" vertex="1" connectable="0" parent="rCeCGkJg5bOsxaNGgPTR-11">
          <mxGeometry x="-0.119" y="-1" relative="1" as="geometry">
            <mxPoint x="8" y="-11" as="offset" />
          </mxGeometry>
        </mxCell>
        <mxCell id="rCeCGkJg5bOsxaNGgPTR-15" value="" style="endArrow=classic;html=1;rounded=0;fontFamily=Space Mono;fontSize=12;labelBackgroundColor=none;" edge="1" parent="rCeCGkJg5bOsxaNGgPTR-1">
          <mxGeometry width="50" height="50" relative="1" as="geometry">
            <mxPoint x="400" y="260" as="sourcePoint" />
            <mxPoint x="585" y="260.00000000000006" as="targetPoint" />
          </mxGeometry>
        </mxCell>
        <mxCell id="rCeCGkJg5bOsxaNGgPTR-16" value="Create Order" style="edgeLabel;html=1;align=center;verticalAlign=middle;resizable=0;points=[];fontFamily=Space Mono;fontSize=12;labelBackgroundColor=none;" vertex="1" connectable="0" parent="rCeCGkJg5bOsxaNGgPTR-15">
          <mxGeometry x="-0.119" y="-1" relative="1" as="geometry">
            <mxPoint x="8" y="-11" as="offset" />
          </mxGeometry>
        </mxCell>
        <mxCell id="rCeCGkJg5bOsxaNGgPTR-17" value="Message Broker" style="shape=umlLifeline;perimeter=lifelinePerimeter;whiteSpace=wrap;html=1;container=0;dropTarget=0;collapsible=0;recursiveResize=0;outlineConnect=0;portConstraint=eastwest;newEdgeStyle={&quot;edgeStyle&quot;:&quot;elbowEdgeStyle&quot;,&quot;elbow&quot;:&quot;vertical&quot;,&quot;curved&quot;:0,&quot;rounded&quot;:0};fontFamily=Space Mono;fontSize=12;" vertex="1" parent="rCeCGkJg5bOsxaNGgPTR-1">
          <mxGeometry x="650" y="160" width="100" height="200" as="geometry" />
        </mxCell>
      </root>
    </mxGraphModel>
  </diagram>
  <diagram id="O6OJoh6ofGnR8EMrWVdN" name="With Outbox">
    <mxGraphModel dx="563" dy="879" grid="1" gridSize="10" guides="1" tooltips="1" connect="1" arrows="1" fold="1" page="1" pageScale="1" pageWidth="1100" pageHeight="850" math="0" shadow="0">
      <root>
        <mxCell id="0" />
        <mxCell id="1" parent="0" />
        <mxCell id="6sPPnL3LZV8PmLpJxzOO-1" value="Order Service" style="shape=umlLifeline;perimeter=lifelinePerimeter;whiteSpace=wrap;html=1;container=0;dropTarget=0;collapsible=0;recursiveResize=0;outlineConnect=0;portConstraint=eastwest;newEdgeStyle={&quot;edgeStyle&quot;:&quot;elbowEdgeStyle&quot;,&quot;elbow&quot;:&quot;vertical&quot;,&quot;curved&quot;:0,&quot;rounded&quot;:0};fontFamily=Space Mono;fontSize=12;" vertex="1" parent="1">
          <mxGeometry x="350" y="160" width="100" height="320" as="geometry" />
        </mxCell>
        <mxCell id="6sPPnL3LZV8PmLpJxzOO-2" value="Database" style="shape=cylinder3;whiteSpace=wrap;html=1;boundedLbl=1;backgroundOutline=1;size=15;fontFamily=Space Mono;fontSize=12;" vertex="1" parent="1">
          <mxGeometry x="555" y="120" width="60" height="80" as="geometry" />
        </mxCell>
        <mxCell id="6sPPnL3LZV8PmLpJxzOO-3" value="" style="endArrow=none;dashed=1;html=1;rounded=0;fontFamily=Space Mono;fontSize=12;" edge="1" parent="1">
          <mxGeometry width="50" height="50" relative="1" as="geometry">
            <mxPoint x="585" y="480" as="sourcePoint" />
            <mxPoint x="585" y="200" as="targetPoint" />
          </mxGeometry>
        </mxCell>
        <mxCell id="6sPPnL3LZV8PmLpJxzOO-4" value="Background Worker" style="shape=umlLifeline;perimeter=lifelinePerimeter;whiteSpace=wrap;html=1;container=0;dropTarget=0;collapsible=0;recursiveResize=0;outlineConnect=0;portConstraint=eastwest;newEdgeStyle={&quot;edgeStyle&quot;:&quot;elbowEdgeStyle&quot;,&quot;elbow&quot;:&quot;vertical&quot;,&quot;curved&quot;:0,&quot;rounded&quot;:0};fontFamily=Space Mono;fontSize=12;" vertex="1" parent="1">
          <mxGeometry x="690" y="160" width="100" height="320" as="geometry" />
        </mxCell>
        <mxCell id="6sPPnL3LZV8PmLpJxzOO-5" value="Client App" style="shape=umlLifeline;perimeter=lifelinePerimeter;whiteSpace=wrap;html=1;container=0;dropTarget=0;collapsible=0;recursiveResize=0;outlineConnect=0;portConstraint=eastwest;newEdgeStyle={&quot;edgeStyle&quot;:&quot;elbowEdgeStyle&quot;,&quot;elbow&quot;:&quot;vertical&quot;,&quot;curved&quot;:0,&quot;rounded&quot;:0};fontFamily=Space Mono;fontSize=12;" vertex="1" parent="1">
          <mxGeometry x="230" y="160" width="100" height="320" as="geometry" />
        </mxCell>
        <mxCell id="6sPPnL3LZV8PmLpJxzOO-6" value="" style="endArrow=classic;html=1;rounded=0;fontFamily=Space Mono;fontSize=12;labelBackgroundColor=none;" edge="1" parent="1" target="6sPPnL3LZV8PmLpJxzOO-1">
          <mxGeometry width="50" height="50" relative="1" as="geometry">
            <mxPoint x="280" y="240" as="sourcePoint" />
            <mxPoint x="395" y="240" as="targetPoint" />
          </mxGeometry>
        </mxCell>
        <mxCell id="6sPPnL3LZV8PmLpJxzOO-7" value="Create Order" style="edgeLabel;html=1;align=center;verticalAlign=middle;resizable=0;points=[];fontFamily=Space Mono;fontSize=12;labelBackgroundColor=none;" vertex="1" connectable="0" parent="6sPPnL3LZV8PmLpJxzOO-6">
          <mxGeometry x="-0.119" y="-1" relative="1" as="geometry">
            <mxPoint x="7" y="-11" as="offset" />
          </mxGeometry>
        </mxCell>
        <mxCell id="6sPPnL3LZV8PmLpJxzOO-8" value="" style="endArrow=classic;html=1;rounded=0;fontFamily=Space Mono;fontSize=12;labelBackgroundColor=none;" edge="1" parent="1">
          <mxGeometry width="50" height="50" relative="1" as="geometry">
            <mxPoint x="400" y="260" as="sourcePoint" />
            <mxPoint x="585" y="260" as="targetPoint" />
          </mxGeometry>
        </mxCell>
        <mxCell id="6sPPnL3LZV8PmLpJxzOO-9" value="Start Transaction" style="edgeLabel;html=1;align=center;verticalAlign=middle;resizable=0;points=[];fontFamily=Space Mono;fontSize=12;labelBackgroundColor=none;" vertex="1" connectable="0" parent="6sPPnL3LZV8PmLpJxzOO-8">
          <mxGeometry x="-0.119" y="-1" relative="1" as="geometry">
            <mxPoint x="8" y="-11" as="offset" />
          </mxGeometry>
        </mxCell>
        <mxCell id="6sPPnL3LZV8PmLpJxzOO-10" value="" style="endArrow=classic;html=1;rounded=0;fillColor=#f8cecc;strokeColor=default;fontFamily=Space Mono;fontSize=12;labelBackgroundColor=none;" edge="1" parent="1">
          <mxGeometry width="50" height="50" relative="1" as="geometry">
            <mxPoint x="400" y="340" as="sourcePoint" />
            <mxPoint x="585" y="340" as="targetPoint" />
          </mxGeometry>
        </mxCell>
        <mxCell id="6sPPnL3LZV8PmLpJxzOO-11" value="Save OrderCreatedEvent" style="edgeLabel;html=1;align=center;verticalAlign=middle;resizable=0;points=[];fontColor=default;fontFamily=Space Mono;fontSize=12;labelBackgroundColor=none;" vertex="1" connectable="0" parent="6sPPnL3LZV8PmLpJxzOO-10">
          <mxGeometry x="-0.119" y="-1" relative="1" as="geometry">
            <mxPoint x="8" y="-11" as="offset" />
          </mxGeometry>
        </mxCell>
        <mxCell id="6sPPnL3LZV8PmLpJxzOO-12" value="" style="endArrow=classic;html=1;rounded=0;fontFamily=Space Mono;fontSize=12;labelBackgroundColor=none;" edge="1" parent="1">
          <mxGeometry width="50" height="50" relative="1" as="geometry">
            <mxPoint x="400" y="380" as="sourcePoint" />
            <mxPoint x="585" y="380" as="targetPoint" />
          </mxGeometry>
        </mxCell>
        <mxCell id="6sPPnL3LZV8PmLpJxzOO-13" value="End Transaction" style="edgeLabel;html=1;align=center;verticalAlign=middle;resizable=0;points=[];fontFamily=Space Mono;fontSize=12;labelBackgroundColor=none;" vertex="1" connectable="0" parent="6sPPnL3LZV8PmLpJxzOO-12">
          <mxGeometry x="-0.119" y="-1" relative="1" as="geometry">
            <mxPoint x="8" y="-11" as="offset" />
          </mxGeometry>
        </mxCell>
        <mxCell id="6sPPnL3LZV8PmLpJxzOO-14" value="" style="endArrow=classic;html=1;rounded=0;fontFamily=Space Mono;fontSize=12;labelBackgroundColor=none;" edge="1" parent="1">
          <mxGeometry width="50" height="50" relative="1" as="geometry">
            <mxPoint x="400" y="300" as="sourcePoint" />
            <mxPoint x="585" y="300.00000000000006" as="targetPoint" />
          </mxGeometry>
        </mxCell>
        <mxCell id="6sPPnL3LZV8PmLpJxzOO-15" value="Create Order" style="edgeLabel;html=1;align=center;verticalAlign=middle;resizable=0;points=[];fontFamily=Space Mono;fontSize=12;labelBackgroundColor=none;" vertex="1" connectable="0" parent="6sPPnL3LZV8PmLpJxzOO-14">
          <mxGeometry x="-0.119" y="-1" relative="1" as="geometry">
            <mxPoint x="8" y="-11" as="offset" />
          </mxGeometry>
        </mxCell>
        <mxCell id="6sPPnL3LZV8PmLpJxzOO-16" value="Message Broker" style="shape=umlLifeline;perimeter=lifelinePerimeter;whiteSpace=wrap;html=1;container=0;dropTarget=0;collapsible=0;recursiveResize=0;outlineConnect=0;portConstraint=eastwest;newEdgeStyle={&quot;edgeStyle&quot;:&quot;elbowEdgeStyle&quot;,&quot;elbow&quot;:&quot;vertical&quot;,&quot;curved&quot;:0,&quot;rounded&quot;:0};fontFamily=Space Mono;fontSize=12;" vertex="1" parent="1">
          <mxGeometry x="820" y="160" width="100" height="320" as="geometry" />
        </mxCell>
        <mxCell id="6sPPnL3LZV8PmLpJxzOO-17" value="" style="endArrow=classic;html=1;rounded=0;fontFamily=Space Mono;fontSize=12;labelBackgroundColor=none;" edge="1" parent="1" source="6sPPnL3LZV8PmLpJxzOO-4">
          <mxGeometry width="50" height="50" relative="1" as="geometry">
            <mxPoint x="714.5" y="400" as="sourcePoint" />
            <mxPoint x="585" y="400" as="targetPoint" />
          </mxGeometry>
        </mxCell>
        <mxCell id="6sPPnL3LZV8PmLpJxzOO-18" value="Get Outbox Entries" style="edgeLabel;html=1;align=center;verticalAlign=middle;resizable=0;points=[];fontFamily=Space Mono;fontSize=12;labelBackgroundColor=none;" vertex="1" connectable="0" parent="6sPPnL3LZV8PmLpJxzOO-17">
          <mxGeometry x="0.2086" y="-5" relative="1" as="geometry">
            <mxPoint x="19" y="-5" as="offset" />
          </mxGeometry>
        </mxCell>
        <mxCell id="6sPPnL3LZV8PmLpJxzOO-19" value="" style="endArrow=classic;html=1;rounded=0;fontFamily=Space Mono;fontSize=12;labelBackgroundColor=none;" edge="1" parent="1" target="6sPPnL3LZV8PmLpJxzOO-16">
          <mxGeometry width="50" height="50" relative="1" as="geometry">
            <mxPoint x="740" y="420" as="sourcePoint" />
            <mxPoint x="860" y="420" as="targetPoint" />
          </mxGeometry>
        </mxCell>
        <mxCell id="6sPPnL3LZV8PmLpJxzOO-20" value="Publish Events" style="edgeLabel;html=1;align=center;verticalAlign=middle;resizable=0;points=[];fontFamily=Space Mono;fontSize=12;labelBackgroundColor=none;" vertex="1" connectable="0" parent="6sPPnL3LZV8PmLpJxzOO-19">
          <mxGeometry x="0.2086" y="-5" relative="1" as="geometry">
            <mxPoint x="-15" y="-15" as="offset" />
          </mxGeometry>
        </mxCell>
        <mxCell id="6sPPnL3LZV8PmLpJxzOO-21" value="" style="endArrow=classic;html=1;rounded=0;fontFamily=Space Mono;fontSize=12;labelBackgroundColor=none;" edge="1" parent="1" source="6sPPnL3LZV8PmLpJxzOO-4">
          <mxGeometry width="50" height="50" relative="1" as="geometry">
            <mxPoint x="715" y="450" as="sourcePoint" />
            <mxPoint x="585" y="450" as="targetPoint" />
          </mxGeometry>
        </mxCell>
        <mxCell id="6sPPnL3LZV8PmLpJxzOO-22" value="Mark Events&amp;nbsp;&lt;div style=&quot;font-size: 12px;&quot;&gt;as Processed&lt;/div&gt;" style="edgeLabel;html=1;align=center;verticalAlign=middle;resizable=0;points=[];fontFamily=Space Mono;fontSize=12;labelBackgroundColor=none;" vertex="1" connectable="0" parent="6sPPnL3LZV8PmLpJxzOO-21">
          <mxGeometry x="0.2086" y="-5" relative="1" as="geometry">
            <mxPoint x="19" y="-14" as="offset" />
          </mxGeometry>
        </mxCell>
      </root>
    </mxGraphModel>
  </diagram>
</mxfile>
